<?xml version="1.0" standalone="no"?>
<!DOCTYPE svg PUBLIC "-//W3C//DTD SVG 20010904//EN"
 "http://www.w3.org/TR/2001/REC-SVG-20010904/DTD/svg10.dtd">
<svg version="1.0" xmlns="http://www.w3.org/2000/svg"
 width="700.000000pt" height="700.000000pt" viewBox="0 0 700.000000 700.000000"
 preserveAspectRatio="xMidYMid meet">
<metadata>
Created by potrace 1.14, written by Peter Selinger 2001-2017
</metadata>
<g transform="translate(0.000000,700.000000) scale(0.100000,-0.100000)"
fill="#000000" stroke="none">
<path d="M1320 6993 c-28 -3 -162 -27 -205 -37 -68 -15 -212 -71 -301 -116
-148 -75 -256 -154 -378 -275 -210 -209 -339 -447 -409 -755 l-22 -95 -2
-2175 c-2 -2436 -6 -2290 73 -2527 105 -314 314 -586 589 -768 81 -53 210
-122 255 -135 14 -5 56 -20 94 -34 38 -14 117 -36 175 -48 l106 -23 2200 0
c2072 0 2205 1 2290 18 432 86 794 339 1009 705 82 140 156 334 180 472 3 19
9 55 13 80 5 25 8 1026 8 2225 0 2086 -1 2184 -19 2280 -17 95 -74 281 -101
335 -7 14 -25 50 -40 80 -40 79 -89 152 -166 250 -206 262 -524 454 -874 527
-73 15 -263 17 -2260 18 -1199 1 -2196 0 -2215 -2z m4326 -825 c6 -4 26 -10
45 -13 54 -9 189 -79 244 -127 111 -94 185 -210 221 -343 18 -68 19 -145 19
-2170 -1 -1155 -3 -2118 -6 -2140 -16 -113 -84 -251 -170 -344 -43 -46 -124
-109 -159 -124 -8 -4 -22 -11 -30 -15 -40 -23 -62 -31 -131 -48 -71 -18 -159
-19 -2189 -19 l-2115 0 -85 27 c-140 45 -272 140 -350 253 -34 50 -85 159 -96
205 -4 19 -10 42 -12 50 -2 8 -5 960 -6 2115 -2 2289 -5 2182 55 2313 91 201
284 349 497 381 62 9 4254 8 4268 -1z"/>
<path d="M983 4460 c22 -362 163 -700 391 -934 203 -208 423 -312 681 -321
281 -10 519 89 735 305 153 152 258 325 331 545 l36 110 343 0 343 0 36 -110
c142 -424 442 -730 809 -826 88 -23 271 -33 347 -18 28 5 64 12 80 15 92 15
249 87 355 162 319 225 543 676 545 1097 l0 80 -2519 0 -2519 0 6 -105z"/>
<path d="M1808 2595 c-2 -2 -16 -6 -31 -9 -87 -16 -187 -110 -219 -206 -19
-59 -15 -153 10 -210 55 -128 336 -437 527 -581 226 -169 485 -304 723 -374
28 -8 73 -21 100 -29 72 -21 205 -45 332 -60 113 -13 407 -14 500 -2 49 7 83
12 145 21 108 16 332 78 430 119 17 7 46 19 65 26 87 34 276 136 385 208 233
155 444 357 599 576 89 124 104 235 46 353 -51 103 -149 165 -264 166 -128 2
-189 -35 -299 -180 -280 -369 -662 -596 -1122 -667 -145 -23 -420 -14 -571 18
-223 47 -415 128 -599 251 -172 115 -294 231 -417 393 -84 110 -125 146 -193
169 -45 15 -139 26 -147 18z"/>
</g>
</svg>
