<svg xmlns="http://www.w3.org/2000/svg" xmlns:xlink="http://www.w3.org/1999/xlink"><defs>
<linearGradient id="paint0_linear_0_1" x1="677" y1="9" x2="677" y2="196" gradientUnits="userSpaceOnUse">
<stop stop-color="#7156FB" offset="0"/>
<stop offset="1" stop-color="#FF0DFF"/>
</linearGradient>

<clipPath id="clip0_0_3616">
<rect width="64" height="64" fill="white"/>
</clipPath>

<clipPath id="clip0_0_3600">
<rect width="64" height="64" fill="white"/>
</clipPath>

<clipPath id="clip0_0_3628">
<rect width="64" height="64" fill="white"/>
</clipPath>

<clipPath id="clip0_0_3609">
<rect width="64" height="64" fill="white"/>
</clipPath>
<clipPath id="clip1_0_3609">
<rect width="30" height="30" fill="white" transform="translate(17 17)"/>
</clipPath>

<clipPath id="clip0_0_3591">
<rect width="64" height="64" fill="white"/>
</clipPath>

<clipPath id="clip0_0_3594">
<rect width="64" height="64" fill="white"/>
</clipPath>

<clipPath id="clip0_0_3597">
<rect width="64" height="64" fill="white"/>
</clipPath>
</defs><symbol id="audit-label" viewBox="0 0 177 58"><g fill="none">
<rect x="0.430054" width="176.57" height="58" rx="29" fill="#7156FD" fill-opacity="0.2"/>
<path fill-rule="evenodd" clip-rule="evenodd" d="M51.7444 17.2117L51.9234 18.2936C52.0644 19.3001 52.1297 20.3157 52.1189 21.332C52.1177 23.5778 51.8468 25.8153 51.3119 27.9965C50.5886 30.9598 49.3287 33.7656 47.5948 36.2749C45.591 39.1569 42.6938 41.9915 38.4706 44.2691L37.954 44.5475L37.4374 44.2691C33.2142 41.9915 30.3182 39.1569 28.3133 36.2749C26.5793 33.7656 25.3194 30.9598 24.5961 27.9965C24.0613 25.8157 23.7904 23.5786 23.7891 21.3332C23.7782 20.3169 23.8436 19.3012 23.9846 18.2948L24.1636 17.2128C24.1788 17.1246 24.1765 17.0342 24.1567 16.9469C24.1369 16.8596 24.1 16.777 24.0481 16.704C23.9963 16.631 23.9305 16.569 23.8545 16.5216C23.7786 16.4741 23.694 16.4422 23.6057 16.4275C23.5173 16.4129 23.427 16.4159 23.3398 16.4364C23.2526 16.4568 23.1704 16.4944 23.0978 16.5468C23.0252 16.5992 22.9636 16.6654 22.9168 16.7417C22.8699 16.818 22.8385 16.9028 22.8246 16.9913L22.6457 18.0732C22.4917 19.1528 22.4201 20.2426 22.4312 21.3332C22.432 23.6892 22.7161 26.0365 23.2772 28.3247C24.0411 31.4495 25.3708 34.4079 27.2006 37.0535C29.3157 40.0978 32.3836 43.0912 36.7987 45.4671L37.6376 45.9185C37.7365 45.972 37.847 46 37.9593 46C38.0716 46 38.1822 45.972 38.281 45.9185L39.1188 45.4671C43.5292 43.09 46.5982 40.0978 48.7169 37.0535C50.5458 34.4081 51.8747 31.4501 52.6378 28.3259C53.199 26.0377 53.4831 23.6904 53.4839 21.3344C53.4951 20.2438 53.4233 19.154 53.2695 18.0744L53.0905 16.9924C53.0766 16.904 53.0452 16.8192 52.9983 16.7429C52.9515 16.6666 52.8899 16.6003 52.8173 16.5479C52.7447 16.4955 52.6624 16.458 52.5753 16.4376C52.4881 16.4171 52.3977 16.4141 52.3094 16.4287C52.2211 16.4433 52.1365 16.4753 52.0605 16.5228C51.9846 16.5702 51.9188 16.6322 51.867 16.7052C51.8152 16.7782 51.7783 16.8608 51.7584 16.9481C51.7386 17.0354 51.7363 17.1258 51.7516 17.214L51.7444 17.2117Z" fill="white"/>
<path fill-rule="evenodd" clip-rule="evenodd" d="M27.8714 16.4746L37.9557 13.3936L48.265 16.5409C48.4376 16.5926 48.6236 16.5737 48.7824 16.4885C48.941 16.4032 49.0595 16.2586 49.1118 16.0862C49.1642 15.9139 49.1461 15.7278 49.0616 15.5687C48.9771 15.4096 48.833 15.2905 48.6608 15.2374L38.1535 12.0296C38.0246 11.9901 37.8867 11.9901 37.7577 12.0296L27.4745 15.1687C27.3885 15.1944 27.3085 15.2368 27.239 15.2935C27.1695 15.3502 27.1119 15.4201 27.0695 15.4991C27.027 15.5781 27.0006 15.6647 26.9918 15.754C26.9829 15.8433 26.9918 15.9334 27.0178 16.0192C27.0439 16.105 27.0866 16.1849 27.1436 16.2541C27.2006 16.3234 27.2707 16.3807 27.3499 16.4228C27.4291 16.4649 27.5159 16.4909 27.6052 16.4994C27.6944 16.5079 27.7845 16.4986 27.8703 16.4722L27.8714 16.4746Z" fill="white"/>
<path fill-rule="evenodd" clip-rule="evenodd" d="M22.8919 17.4107L37.3493 45.6283C37.4056 45.7386 37.4912 45.8313 37.5965 45.8964C37.7019 45.9615 37.823 45.9965 37.9469 45.9976C38.0707 45.9987 38.1924 45.9659 38.299 45.9026C38.4054 45.8394 38.4926 45.7482 38.5509 45.6389L47.3675 29.1495L47.3805 29.1234L53.0237 17.3918C53.1001 17.2299 53.1096 17.0443 53.05 16.8755C52.9905 16.7066 52.8667 16.5681 52.7055 16.49C52.5444 16.412 52.359 16.4006 52.1895 16.4586C52.0201 16.5165 51.8804 16.6389 51.8007 16.7993L46.1671 28.5214L37.9738 43.8554L24.0995 16.7898C24.0595 16.7094 24.004 16.6378 23.9361 16.5791C23.8682 16.5203 23.7894 16.4756 23.7041 16.4476C23.6188 16.4195 23.5289 16.4087 23.4394 16.4156C23.3499 16.4226 23.2627 16.4473 23.1828 16.4882C23.1029 16.5291 23.0319 16.5855 22.974 16.6541C22.916 16.7226 22.8722 16.802 22.8452 16.8876C22.8181 16.9731 22.8083 17.0632 22.8164 17.1526C22.8244 17.242 22.8501 17.329 22.8919 17.4084V17.4107Z" fill="white"/>
<path fill-rule="evenodd" clip-rule="evenodd" d="M29.8124 29.9771H45.8892C46.0692 29.9771 46.2417 29.9057 46.3689 29.7784C46.4961 29.6512 46.5676 29.4787 46.5676 29.2987C46.5676 29.1188 46.4961 28.9463 46.3689 28.819C46.2417 28.6918 46.0692 28.6203 45.8892 28.6203H29.8124C29.6324 28.6203 29.4599 28.6918 29.3327 28.819C29.2054 28.9463 29.134 29.1188 29.134 29.2987C29.134 29.4787 29.2054 29.6512 29.3327 29.7784C29.4599 29.9057 29.6324 29.9771 29.8124 29.9771Z" fill="white"/>
<path d="M109.937 32.2628V35.5839C109.939 35.8322 109.891 36.0782 109.796 36.3078C109.701 36.5374 109.563 36.7461 109.387 36.9216C109.211 37.0972 109.002 37.2363 108.773 37.3308C108.543 37.4254 108.297 37.4736 108.049 37.4726H106.318L109.875 41.6906H108.191L104.649 37.4726H100.49C100.284 37.4621 100.079 37.4412 99.8753 37.4097V41.6906H98.5954V30.374H108.039C108.288 30.373 108.533 30.4212 108.763 30.5158C108.993 30.6104 109.201 30.7494 109.377 30.925C109.553 31.1006 109.692 31.3092 109.786 31.5388C109.881 31.7684 109.929 32.0145 109.928 32.2628H109.937ZM100.494 36.1822H108.049C108.128 36.1832 108.206 36.1684 108.279 36.1386C108.352 36.1089 108.419 36.0649 108.474 36.0092C108.53 35.9534 108.574 35.887 108.604 35.814C108.634 35.741 108.648 35.6627 108.647 35.5839V32.2628C108.648 32.1828 108.634 32.1033 108.604 32.029C108.575 31.9547 108.53 31.887 108.474 31.8298C108.42 31.7713 108.354 31.7248 108.281 31.6936C108.207 31.6623 108.128 31.647 108.048 31.6485H100.493C100.33 31.6493 100.174 31.7143 100.059 31.8293C99.9443 31.9444 99.8793 32.1002 99.8785 32.2628V35.5839C99.8768 35.6637 99.8921 35.743 99.9234 35.8166C99.9546 35.8901 100.001 35.9562 100.06 36.0105C100.117 36.0665 100.185 36.1105 100.259 36.14C100.334 36.1695 100.414 36.1839 100.494 36.1822Z" fill="white"/>
<path fill-rule="evenodd" clip-rule="evenodd" d="M116.706 30.3579H128.035V31.6377H123.022V41.6958H121.742V31.6377H116.706V30.3579ZM134.901 41.6905V30.3579H136.181V41.6905H134.901ZM153.19 30.3579H154.828L150.09 36.0242L154.843 41.6905H153.19L148.972 36.6694H145.321V41.6905H144.032V30.3579H145.323V35.3779H148.975L153.19 30.3579Z" fill="white"/>
<path d="M73.5948 31.6334H64.1819C64.0193 31.6343 63.8635 31.6993 63.7484 31.8143C63.6334 31.9293 63.5685 32.0851 63.5676 32.2478V39.8028C63.5687 39.9654 63.6338 40.121 63.7488 40.2359C63.8637 40.351 64.0193 40.416 64.1819 40.4171H73.5948V41.6969H64.1819C63.9336 41.698 63.6875 41.65 63.4577 41.5555C63.2281 41.4609 63.0194 41.3219 62.8438 41.1462C62.6682 40.9706 62.5292 40.7619 62.4346 40.5323C62.3401 40.3026 62.292 40.0565 62.2932 39.8082V32.2531C62.292 32.0047 62.3401 31.7586 62.4346 31.529C62.5292 31.2993 62.6682 31.0906 62.8438 30.915C63.0194 30.7394 63.2281 30.6003 63.4577 30.5058C63.6875 30.4112 63.9336 30.3632 64.1819 30.3643H73.5948V31.6334Z" fill="white"/>
<path d="M91.2699 30.3579V31.6377H82.2047V35.3779H89.4909V36.6684H82.2036V40.415H91.2688V41.6948H80.9238V30.3579H91.2699Z" fill="white"/>
<path d="M75.5684 20.5571L78.1284 14.9571H78.7124L81.2724 20.5571H80.6484L78.2964 15.3011H78.5364L76.1844 20.5571H75.5684ZM76.5764 19.0611L76.7524 18.5811H80.0084L80.1844 19.0611H76.5764ZM86.4976 20.6051C85.7829 20.6051 85.2202 20.3998 84.8096 19.9891C84.3989 19.5785 84.1936 18.9705 84.1936 18.1651V14.9571H84.7856V18.1411C84.7856 18.8025 84.9349 19.2905 85.2336 19.6051C85.5322 19.9198 85.9536 20.0771 86.4976 20.0771C87.0469 20.0771 87.4709 19.9198 87.7696 19.6051C88.0682 19.2905 88.2176 18.8025 88.2176 18.1411V14.9571H88.7936V18.1651C88.7936 18.9705 88.5882 19.5785 88.1776 19.9891C87.7722 20.3998 87.2122 20.6051 86.4976 20.6051ZM92.7375 20.5571V14.9571H95.0175C95.6148 14.9571 96.1375 15.0771 96.5855 15.3171C97.0388 15.5518 97.3908 15.8798 97.6415 16.3011C97.8922 16.7225 98.0175 17.2078 98.0175 17.7571C98.0175 18.3065 97.8922 18.7918 97.6415 19.2131C97.3908 19.6345 97.0388 19.9651 96.5855 20.2051C96.1375 20.4398 95.6148 20.5571 95.0175 20.5571H92.7375ZM93.3295 20.0451H94.9855C95.4815 20.0451 95.9108 19.9491 96.2735 19.7571C96.6415 19.5598 96.9268 19.2905 97.1295 18.9491C97.3322 18.6025 97.4335 18.2051 97.4335 17.7571C97.4335 17.3038 97.3322 16.9065 97.1295 16.5651C96.9268 16.2238 96.6415 15.9571 96.2735 15.7651C95.9108 15.5678 95.4815 15.4691 94.9855 15.4691H93.3295V20.0451ZM101.507 20.5571V14.9571H102.099V20.5571H101.507ZM107.169 20.5571V15.4691H105.201V14.9571H109.729V15.4691H107.761V20.5571H107.169ZM113.363 17.4611H116.323V17.9651H113.363V17.4611ZM113.427 20.0451H116.795V20.5571H112.835V14.9571H116.675V15.4691H113.427V20.0451ZM120.346 20.5571V14.9571H122.626C123.224 14.9571 123.746 15.0771 124.194 15.3171C124.648 15.5518 125 15.8798 125.25 16.3011C125.501 16.7225 125.626 17.2078 125.626 17.7571C125.626 18.3065 125.501 18.7918 125.25 19.2131C125 19.6345 124.648 19.9651 124.194 20.2051C123.746 20.4398 123.224 20.5571 122.626 20.5571H120.346ZM120.938 20.0451H122.594C123.09 20.0451 123.52 19.9491 123.882 19.7571C124.25 19.5598 124.536 19.2905 124.738 18.9491C124.941 18.6025 125.042 18.2051 125.042 17.7571C125.042 17.3038 124.941 16.9065 124.738 16.5651C124.536 16.2238 124.25 15.9571 123.882 15.7651C123.52 15.5678 123.09 15.4691 122.594 15.4691H120.938V20.0451ZM133.369 20.5571V14.9571H135.785C136.409 14.9571 136.892 15.0825 137.233 15.3331C137.58 15.5838 137.753 15.9385 137.753 16.3971C137.753 16.7011 137.681 16.9571 137.537 17.1651C137.399 17.3731 137.207 17.5305 136.961 17.6371C136.721 17.7438 136.457 17.7971 136.169 17.7971L136.305 17.6051C136.663 17.6051 136.969 17.6611 137.225 17.7731C137.487 17.8798 137.689 18.0425 137.833 18.2611C137.977 18.4745 138.049 18.7411 138.049 19.0611C138.049 19.5358 137.873 19.9038 137.521 20.1651C137.175 20.4265 136.649 20.5571 135.945 20.5571H133.369ZM133.961 20.0691H135.937C136.428 20.0691 136.804 19.9865 137.065 19.8211C137.327 19.6505 137.457 19.3811 137.457 19.0131C137.457 18.6505 137.327 18.3865 137.065 18.2211C136.804 18.0505 136.428 17.9651 135.937 17.9651H133.897V17.4771H135.745C136.193 17.4771 136.54 17.3918 136.785 17.2211C137.036 17.0505 137.161 16.7971 137.161 16.4611C137.161 16.1198 137.036 15.8665 136.785 15.7011C136.54 15.5305 136.193 15.4451 135.745 15.4451H133.961V20.0691ZM142.779 20.5571V18.4771L142.915 18.8451L140.539 14.9571H141.171L143.259 18.3731H142.923L145.011 14.9571H145.603L143.227 18.8451L143.363 18.4771V20.5571H142.779Z" fill="white"/>
<path d="M65.888 13.8889L69.338 14.7514C69.5299 14.7996 69.6668 14.9909 69.6668 15.2124V19.9298C69.6668 20.8774 69.2456 21.7626 68.5449 22.2878L65.888 24.2807L63.231 22.2878C62.5298 21.7621 62.1091 20.8774 62.1091 19.9303V15.2124C62.1091 14.9909 62.246 14.7996 62.4379 14.7514L65.888 13.8889Z" fill="#7156FB"/>
<path d="M63.9971 18.7619L65.543 20.2194L68.2482 17.6687" stroke="white" stroke-width="1.3365"/>
</g></symbol><symbol id="banner-bg" viewBox="0 0 1354 205"><g fill="none">
<path d="M0 49C0 26.9086 17.9086 9 40 9H1314C1336.09 9 1354 26.9086 1354 49V156C1354 178.091 1336.09 196 1314 196H40C17.9086 196 0 178.091 0 156V49Z" fill="url(#paint0_linear_0_1)" fill-opacity="0.2"/>
<path fill-rule="evenodd" clip-rule="evenodd" d="M390 10H1314C1335.54 10 1353 27.4609 1353 49V156C1353 177.539 1335.54 195 1314 195H1264V196H1314C1336.09 196 1354 178.091 1354 156V49C1354 26.9086 1336.09 9 1314 9H390V10ZM90 10V9H40C17.9086 9 0 26.9086 0 49V156C0 178.091 17.9086 196 40 196H964V195H40C18.4609 195 1 177.539 1 156V49C1 27.4609 18.4609 10 40 10H90Z" fill="#7156FB"/>
<path d="M1014 195.5H1264M90 9.5H340" stroke="#7156FB" stroke-dasharray="2 2"/>
<path d="M976.479 205L970 205L975.514 195.996L970 187L976.479 187L982 195.996L976.479 205Z" fill="#7156FB"/>
<path d="M988.486 205L982 205L987.521 195.996L982 187L988.486 187L994 195.996L988.486 205Z" fill="#7156FB" fill-opacity="0.7"/>
<path d="M1000.49 205L994 205L999.514 195.996L994 187L1000.49 187L1006 195.996L1000.49 205Z" fill="#7156FB" fill-opacity="0.3"/>
<path d="M375.521 9.80426e-07L382 1.90735e-06L376.486 9.00407L382 18L375.521 18L370 9.00407L375.521 9.80426e-07Z" fill="#7156FB"/>
<path d="M363.514 9.79424e-07L370 1.90735e-06L364.479 9.00407L370 18L363.514 18L358 9.00407L363.514 9.79424e-07Z" fill="#7156FB" fill-opacity="0.7"/>
<path d="M351.514 9.79424e-07L358 1.90735e-06L352.486 9.00407L358 18L351.514 18L346 9.00407L351.514 9.79424e-07Z" fill="#7156FB" fill-opacity="0.3"/>

</g></symbol><symbol id="boals" viewBox="0 0 64 64"><g fill="none">
<g clip-path="url(#clip0_0_3616)">
<rect width="64" height="64" rx="20" fill="#7156FD" fill-opacity="0.2"/>
<path d="M34.4271 31.9805C34.4271 37.4924 29.8952 41.9607 24.305 41.9607C18.7149 41.9607 14.1826 37.4924 14.1826 31.9805C14.1826 26.4686 18.7146 22 24.305 22C29.8955 22 34.4271 26.4686 34.4271 31.9805Z" fill="#01FFC2"/>
<path d="M45.5308 31.9808C45.5308 37.1691 43.2648 41.3767 40.4696 41.3767C37.6744 41.3767 35.4084 37.1691 35.4084 31.9808C35.4084 26.7926 37.674 22.585 40.4693 22.585C43.2645 22.585 45.5305 26.7912 45.5305 31.9808" fill="#01FFC2"/>
<path d="M50.0735 31.981C50.0735 36.6284 49.2767 40.3982 48.2935 40.3982C47.3103 40.3982 46.5138 36.6294 46.5138 31.981C46.5138 27.3325 47.3106 23.5637 48.2935 23.5637C49.2764 23.5637 50.0735 27.3322 50.0735 31.981Z" fill="#01FFC2"/>
</g>

</g></symbol><symbol id="facebook" viewBox="0 0 64 64"><g fill="none">
<g clip-path="url(#clip0_0_3600)">
<rect width="64" height="64" rx="20" fill="#7156FD" fill-opacity="0.2"/>
<path d="M27.9619 46.3456C27.9677 46.2549 27.9677 46.1639 27.9619 46.0732V32.1373H25.0996V27.2828H28.021V26.9157C28.021 25.8264 28.021 24.7371 28.021 23.6478C28.0295 22.4474 28.3561 21.2707 28.9673 20.2378C29.5435 19.2957 30.4644 18.616 31.5339 18.3434C32.1607 18.153 32.8079 18.0377 33.4618 18C35.0467 18 36.6435 18 38.1929 18V22.8545H37.8972H35.2597C35.076 22.8638 34.8937 22.8916 34.7156 22.9374C34.4705 22.9897 34.2514 23.1259 34.096 23.3226C33.9405 23.5193 33.8584 23.7641 33.8639 24.0149C33.8639 25.0568 33.8639 26.1224 33.8639 27.1762C33.8639 27.1762 33.8639 27.1762 33.8639 27.2472H38.252L37.7316 32.1373H33.8166V46.014C33.8166 46.1324 33.8166 46.2508 33.8166 46.3692L27.9619 46.3456Z" fill="#01FFC2"/>
</g>

</g></symbol><symbol id="google-play" viewBox="0 0 64 64"><g fill="none">
<g clip-path="url(#clip0_0_3628)">
<rect width="64" height="64" rx="20" fill="#7156FD" fill-opacity="0.2"/>
<path d="M38.9009 25.5205L21.8557 16.395C20.9699 15.9208 20.0095 15.8966 19.1782 16.1997L33.6999 30.7214L38.9009 25.5205Z" fill="#01FFC2"/>
<path d="M45.2581 28.9231L40.3482 26.2946L34.8112 31.8315L40.3482 37.3685L45.258 34.7399C47.5806 33.4965 47.5806 30.1665 45.2581 28.9231Z" fill="#01FFC2"/>
<path d="M17.8491 17.0908C17.3283 17.6632 17 18.4274 17 19.3029V44.3601C17 45.2357 17.3283 45.9999 17.849 46.5723L32.5898 31.8315L17.8491 17.0908Z" fill="#01FFC2"/>
<path d="M19.1782 47.4647C20.0094 47.7677 20.9699 47.7436 21.8557 47.2693L38.9009 38.1438L33.7 32.9429L19.1782 47.4647Z" fill="#01FFC2"/>
</g>

</g></symbol><symbol id="instagram" viewBox="0 0 64 64"><g fill="none">
<g clip-path="url(#clip0_0_3609)">
<rect width="64" height="64" rx="20" fill="#7156FD" fill-opacity="0.2"/>
<g clip-path="url(#clip1_0_3609)">
<path fill-rule="evenodd" clip-rule="evenodd" d="M41.807 23.993C41.807 24.9873 41.0009 25.793 40.007 25.793C39.013 25.793 38.207 24.9873 38.207 23.993C38.207 22.9988 39.013 22.193 40.007 22.193C41.0012 22.193 41.807 22.9988 41.807 23.993ZM32 36.9999C29.2386 36.9999 27.0001 34.7614 27.0001 32C27.0001 29.2386 29.2386 27.0001 32 27.0001C34.7614 27.0001 36.9999 29.2386 36.9999 32C36.9999 34.7614 34.7614 36.9999 32 36.9999ZM32 24.2973C27.7459 24.2973 24.2973 27.7459 24.2973 32C24.2973 36.2541 27.7459 39.7027 32 39.7027C36.2541 39.7027 39.7027 36.2541 39.7027 32C39.7027 27.7459 36.2541 24.2973 32 24.2973ZM32 19.7028C36.0052 19.7028 36.4796 19.718 38.0612 19.7902C39.5237 19.857 40.318 20.1013 40.8465 20.3068C41.5466 20.5789 42.0462 20.904 42.5712 21.429C43.0962 21.9537 43.4213 22.4534 43.6934 23.1537C43.8988 23.6823 44.1432 24.4766 44.21 25.9391C44.2822 27.5209 44.2974 27.9952 44.2974 32.0005C44.2974 36.0057 44.2822 36.4801 44.21 38.0616C44.1432 39.5241 43.899 40.3184 43.6934 40.847C43.4213 41.547 43.0962 42.0467 42.5712 42.5717C42.0465 43.0967 41.5468 43.4218 40.8465 43.6939C40.318 43.8992 39.5237 44.1437 38.0612 44.2105C36.4796 44.2827 36.0052 44.2979 32 44.2979C27.9945 44.2979 27.5202 44.2827 25.9386 44.2105C24.4761 44.1437 23.6818 43.8995 23.1533 43.6939C22.4532 43.4218 21.9535 43.0967 21.4285 42.5717C20.9038 42.047 20.5784 41.5473 20.3063 40.847C20.101 40.3184 19.8566 39.5241 19.7898 38.0616C19.7176 36.4798 19.7023 36.0055 19.7023 32.0005C19.7023 27.9952 19.7176 27.5209 19.7898 25.9391C19.8566 24.4766 20.1008 23.6823 20.3063 23.1537C20.5784 22.4537 20.9035 21.954 21.4285 21.429C21.9533 20.904 22.453 20.5789 23.1533 20.3068C23.6818 20.1015 24.4761 19.857 25.9386 19.7902C27.5204 19.718 27.9948 19.7028 32 19.7028ZM32 17C27.9263 17 27.4154 17.0173 25.8155 17.0902C24.219 17.1631 23.1284 17.4167 22.1745 17.7875C21.188 18.1707 20.3516 18.6837 19.5177 19.5177C18.6837 20.3516 18.1707 21.188 17.7875 22.1745C17.4167 23.1287 17.1631 24.219 17.0902 25.8155C17.0173 27.4154 17 27.9263 17 32C17 36.0737 17.0173 36.5846 17.0902 38.1845C17.1631 39.781 17.4167 40.8713 17.7875 41.8255C18.1707 42.812 18.6837 43.6484 19.5177 44.4823C20.3516 45.3162 21.188 45.8291 22.1745 46.2125C23.1287 46.5833 24.219 46.8369 25.8155 46.9098C27.4154 46.9827 27.9263 47 32 47C36.0737 47 36.5846 46.9827 38.1845 46.9098C39.781 46.8369 40.8713 46.5833 41.8255 46.2125C42.812 45.8291 43.6484 45.3162 44.4823 44.4823C45.3162 43.6484 45.8291 42.812 46.2125 41.8255C46.5833 40.8713 46.8369 39.781 46.9098 38.1845C46.9827 36.5846 47 36.0737 47 32C47 27.9263 46.9827 27.4154 46.9098 25.8155C46.8369 24.219 46.5833 23.1287 46.2125 22.1745C45.8291 21.188 45.3162 20.3516 44.4823 19.5177C43.6484 18.6837 42.812 18.1709 41.8255 17.7875C40.8713 17.4167 39.781 17.1631 38.1845 17.0902C36.5846 17.0173 36.0737 17 32 17Z" fill="#01FFC2"/>
</g>
</g>

</g></symbol><symbol id="logo-text" viewBox="0 0 92 31"><g fill="none">
<path d="M12.3797 30V23.84H15.0373C15.7237 23.84 16.2546 23.9779 16.6301 24.2536C17.0114 24.5293 17.2021 24.9195 17.2021 25.424C17.2021 25.7584 17.1229 26.04 16.9645 26.2688C16.8119 26.4976 16.6007 26.6707 16.3309 26.788C16.0669 26.9053 15.7765 26.964 15.4597 26.964L15.6093 26.7528C16.0023 26.7528 16.3397 26.8144 16.6213 26.9376C16.9087 27.0549 17.1317 27.2339 17.2901 27.4744C17.4485 27.7091 17.5277 28.0024 17.5277 28.3544C17.5277 28.8765 17.3341 29.2813 16.9469 29.5688C16.5655 29.8563 15.9877 30 15.2133 30H12.3797ZM13.0309 29.4632H15.2045C15.7442 29.4632 16.1578 29.3723 16.4453 29.1904C16.7327 29.0027 16.8765 28.7064 16.8765 28.3016C16.8765 27.9027 16.7327 27.6123 16.4453 27.4304C16.1578 27.2427 15.7442 27.1488 15.2045 27.1488H12.9605V26.612H14.9933C15.4861 26.612 15.8674 26.5181 16.1373 26.3304C16.413 26.1427 16.5509 25.864 16.5509 25.4944C16.5509 25.1189 16.413 24.8403 16.1373 24.6584C15.8674 24.4707 15.4861 24.3768 14.9933 24.3768H13.0309V29.4632ZM22.7307 30V27.712L22.8803 28.1168L20.2667 23.84H20.9619L23.2587 27.5976H22.8891L25.1859 23.84H25.8371L23.2235 28.1168L23.3731 27.712V30H22.7307ZM33.9022 30V23.84H34.439L38.6894 29.1904H38.4078V23.84H39.0502V30H38.5134L34.2718 24.6496H34.5534V30H33.9022ZM45.9184 30.0528C45.1323 30.0528 44.5133 29.8269 44.0616 29.3752C43.6099 28.9235 43.384 28.2547 43.384 27.3688V23.84H44.0352V27.3424C44.0352 28.0699 44.1995 28.6067 44.528 28.9528C44.8565 29.2989 45.32 29.472 45.9184 29.472C46.5227 29.472 46.9891 29.2989 47.3176 28.9528C47.6461 28.6067 47.8104 28.0699 47.8104 27.3424V23.84H48.444V27.3688C48.444 28.2547 48.2181 28.9235 47.7664 29.3752C47.3205 29.8269 46.7045 30.0528 45.9184 30.0528ZM53.8588 30V24.4032H51.694V23.84H56.6748V24.4032H54.51V30H53.8588ZM61.695 30.0528C61.2374 30.0528 60.7974 29.9795 60.375 29.8328C59.9585 29.6803 59.6358 29.4867 59.407 29.252L59.6622 28.7504C59.8793 28.9616 60.1697 29.1405 60.5334 29.2872C60.903 29.428 61.2902 29.4984 61.695 29.4984C62.0822 29.4984 62.3961 29.4515 62.6366 29.3576C62.883 29.2579 63.0619 29.1259 63.1734 28.9616C63.2907 28.7973 63.3494 28.6155 63.3494 28.416C63.3494 28.1755 63.279 27.9819 63.1382 27.8352C63.0033 27.6885 62.8243 27.5741 62.6014 27.492C62.3785 27.404 62.1321 27.3277 61.8622 27.2632C61.5923 27.1987 61.3225 27.1312 61.0526 27.0608C60.7827 26.9845 60.5334 26.8848 60.3046 26.7616C60.0817 26.6384 59.8998 26.4771 59.759 26.2776C59.6241 26.0723 59.5566 25.8053 59.5566 25.4768C59.5566 25.1717 59.6358 24.8931 59.7942 24.6408C59.9585 24.3827 60.2078 24.1773 60.5422 24.0248C60.8766 23.8664 61.3049 23.7872 61.827 23.7872C62.1731 23.7872 62.5163 23.8371 62.8566 23.9368C63.1969 24.0307 63.4902 24.1627 63.7366 24.3328L63.5166 24.852C63.2526 24.676 62.971 24.5469 62.6718 24.4648C62.3785 24.3827 62.0939 24.3416 61.8182 24.3416C61.4486 24.3416 61.1435 24.3915 60.903 24.4912C60.6625 24.5909 60.4835 24.7259 60.3662 24.896C60.2547 25.0603 60.199 25.248 60.199 25.4592C60.199 25.6997 60.2665 25.8933 60.4014 26.04C60.5422 26.1867 60.7241 26.3011 60.947 26.3832C61.1758 26.4653 61.4251 26.5387 61.695 26.6032C61.9649 26.6677 62.2318 26.7381 62.4958 26.8144C62.7657 26.8907 63.0121 26.9904 63.235 27.1136C63.4638 27.2309 63.6457 27.3893 63.7806 27.5888C63.9214 27.7883 63.9918 28.0493 63.9918 28.372C63.9918 28.6712 63.9097 28.9499 63.7454 29.208C63.5811 29.4603 63.3289 29.6656 62.9886 29.824C62.6542 29.9765 62.223 30.0528 61.695 30.0528ZM69.5379 30.044C69.092 30.044 68.6901 29.9443 68.3323 29.7448C67.9803 29.5395 67.7016 29.2608 67.4963 28.9088C67.2909 28.5509 67.1883 28.1432 67.1883 27.6856C67.1883 27.2221 67.2909 26.8144 67.4963 26.4624C67.7016 26.1104 67.9803 25.8347 68.3323 25.6352C68.6843 25.4357 69.0861 25.336 69.5379 25.336C69.9955 25.336 70.4003 25.4357 70.7523 25.6352C71.1101 25.8347 71.3888 26.1104 71.5883 26.4624C71.7936 26.8144 71.8963 27.2221 71.8963 27.6856C71.8963 28.1432 71.7936 28.5509 71.5883 28.9088C71.3888 29.2608 71.1101 29.5395 70.7523 29.7448C70.3944 29.9443 69.9896 30.044 69.5379 30.044ZM69.5379 29.4896C69.8723 29.4896 70.1685 29.4163 70.4267 29.2696C70.6848 29.1171 70.8872 28.9059 71.0339 28.636C71.1864 28.3603 71.2627 28.0435 71.2627 27.6856C71.2627 27.3219 71.1864 27.0051 71.0339 26.7352C70.8872 26.4653 70.6848 26.2571 70.4267 26.1104C70.1685 25.9579 69.8752 25.8816 69.5467 25.8816C69.2181 25.8816 68.9248 25.9579 68.6667 26.1104C68.4085 26.2571 68.2032 26.4653 68.0507 26.7352C67.8981 27.0051 67.8219 27.3219 67.8219 27.6856C67.8219 28.0435 67.8981 28.3603 68.0507 28.636C68.2032 28.9059 68.4085 29.1171 68.6667 29.2696C68.9248 29.4163 69.2152 29.4896 69.5379 29.4896ZM77.9063 25.336C78.2817 25.336 78.6103 25.4093 78.8919 25.556C79.1793 25.6968 79.4023 25.9139 79.5607 26.2072C79.7249 26.5005 79.8071 26.8701 79.8071 27.316V30H79.1823V27.3776C79.1823 26.8907 79.0591 26.524 78.8127 26.2776C78.5721 26.0253 78.2319 25.8992 77.7919 25.8992C77.4633 25.8992 77.1759 25.9667 76.9295 26.1016C76.6889 26.2307 76.5012 26.4213 76.3663 26.6736C76.2372 26.92 76.1727 27.2192 76.1727 27.5712V30H75.5479V25.38H76.1463V26.6472L76.0495 26.4096C76.1961 26.0752 76.4308 25.8141 76.7535 25.6264C77.0761 25.4328 77.4604 25.336 77.9063 25.336Z" fill="white"/>
<path d="M10.2121 13.9377C9.9594 13.9377 9.73604 13.9795 9.54438 14.0621C9.34936 14.1462 9.19036 14.2533 9.06643 14.3873C8.9401 14.5209 8.82145 14.6703 8.71049 14.8307C8.59953 14.9935 8.47896 15.154 8.34879 15.3168C8.21861 15.4792 8.07547 15.6266 7.91647 15.7602C7.75796 15.8942 7.54949 16.0013 7.28914 16.0854C7.02879 16.1675 6.73433 16.2098 6.40385 16.2098C5.4494 16.2098 4.71495 15.8846 4.19665 15.2342C3.68027 14.5843 3.42233 13.6985 3.42233 12.5779C3.42233 11.8127 3.51023 11.1512 3.68796 10.5907C3.86569 10.0306 4.10682 9.60209 4.41088 9.30188C4.71495 9.00358 5.03438 8.78358 5.36918 8.64572C5.70399 8.50786 6.0556 8.43917 6.42883 8.43917C6.89381 8.43917 7.28578 8.50978 7.60521 8.6534C7.92656 8.79511 8.16578 8.96899 8.32813 9.17362C8.49049 9.37825 8.63988 9.58288 8.77774 9.78751C8.9156 9.99214 9.08757 10.166 9.29219 10.3077C9.49682 10.4494 9.74949 10.522 10.0497 10.522C10.5219 10.522 10.9143 10.3899 11.2261 10.1262C11.5378 9.86196 11.693 9.48537 11.693 8.99589C11.693 8.14471 11.192 7.37759 10.1914 6.69502C9.1894 6.01436 7.97075 5.67188 6.53643 5.67188C4.41569 5.67188 2.77626 6.30113 1.62102 7.55965C0.465776 8.81768 -0.113525 10.4874 -0.113525 12.5779C-0.113525 13.5169 0.0185707 14.372 0.282282 15.1444C0.545994 15.9172 0.936518 16.5921 1.45289 17.1681C1.96927 17.7435 2.64224 18.1893 3.47036 18.5049C4.29848 18.8205 5.24525 18.9771 6.30874 18.9771C7.17722 18.9771 7.96499 18.8584 8.67447 18.6216C9.38394 18.3862 9.95027 18.0822 10.373 17.7109C10.7957 17.34 11.1209 16.9442 11.3481 16.5215C11.5758 16.0988 11.6906 15.6876 11.6906 15.2861C11.6906 14.9224 11.5527 14.6069 11.2775 14.3393C11.0003 14.0717 10.6463 13.9377 10.214 13.9377H10.2121Z" fill="white"/>
<path d="M25.1754 8.08909C24.9156 7.46223 24.5635 6.97804 24.1216 6.63939C23.6796 6.30123 23.2094 6.05433 22.7084 5.90158C22.2074 5.74834 21.6737 5.67005 21.104 5.67005C19.417 5.67005 18.0994 6.29354 17.1546 7.5386H17.107V2.66546C17.107 2.09721 16.9485 1.66153 16.6291 1.35939C16.3096 1.05485 15.8773 0.9021 15.334 0.9021C14.7908 0.9021 14.3585 1.05485 14.0448 1.35939C13.7292 1.66345 13.5707 2.09721 13.5707 2.66546V17.2023C13.5707 18.3863 14.1577 18.9772 15.334 18.9772C16.5104 18.9772 17.1089 18.3863 17.1089 17.2023V11.3713C17.1089 10.5355 17.388 9.86205 17.9486 9.34952C18.5091 8.83699 19.123 8.58096 19.7922 8.58096C20.5266 8.58096 21.0833 8.80096 21.4599 9.2424C21.8385 9.68433 22.0282 10.279 22.0282 11.0288V17.2023C22.0282 18.3863 22.6152 18.9772 23.7896 18.9772C24.9641 18.9772 25.5645 18.3863 25.5645 17.2023V10.3174C25.5645 9.45856 25.4343 8.7145 25.1745 8.08717L25.1764 8.08909H25.1754Z" fill="white"/>
<path d="M40.5942 12.6794C40.8103 12.469 40.9194 12.0655 40.9194 11.467C40.9194 10.7326 40.7724 10.0212 40.4813 9.33235C40.1888 8.64209 39.7795 8.02628 39.2516 7.48108C38.7218 6.93829 38.0488 6.50021 37.2284 6.16733C36.4079 5.83637 35.5053 5.67017 34.5202 5.67017C32.445 5.67017 30.8138 6.2975 29.624 7.55217C28.4327 8.80493 27.838 10.4741 27.838 12.555C27.838 13.1939 27.9125 13.8116 28.0619 14.4063C28.2112 15.0014 28.4615 15.5807 28.8136 16.1394C29.1638 16.6995 29.5942 17.1889 30.1029 17.6059C30.6115 18.0247 31.2562 18.3576 32.0363 18.6065C32.8168 18.8548 33.6848 18.9792 34.6393 18.9792C35.0812 18.9792 35.5457 18.9393 36.0352 18.8606C36.5232 18.7823 37.0165 18.6559 37.5137 18.4878C38.0108 18.3197 38.4547 18.1131 38.8486 17.8739C39.2425 17.6328 39.5638 17.3383 39.8146 16.9862C40.0629 16.6365 40.1854 16.2537 40.1854 15.8444C40.1854 15.4986 40.0461 15.183 39.7665 14.8982C39.4874 14.6147 39.1411 14.4735 38.7319 14.4735C38.472 14.4735 38.2347 14.5326 38.0224 14.6493C37.8101 14.768 37.6131 14.913 37.4315 15.0816C37.25 15.2498 37.0492 15.4222 36.8292 15.5961C36.6073 15.7681 36.309 15.9155 35.9357 16.0342C35.5611 16.1523 35.1288 16.2119 34.6412 16.2119C33.6315 16.2119 32.8356 15.9136 32.2524 15.3189C31.6693 14.7238 31.3763 13.9495 31.3763 12.995H39.3726C39.9712 12.995 40.3804 12.8898 40.5966 12.6813L40.5946 12.6794H40.5942ZM31.3739 10.9583C31.5785 10.0745 31.9517 9.38615 32.4912 8.88899C33.0301 8.39183 33.7324 8.143 34.5908 8.143C35.3733 8.143 36.0405 8.41056 36.5953 8.94039C37.152 9.47213 37.4767 10.1456 37.5709 10.9583H31.3739Z" fill="white"/>
<path d="M55.4163 12.6794C55.6325 12.469 55.7415 12.0655 55.7415 11.467C55.7415 10.7326 55.594 10.0212 55.3034 9.33235C55.0109 8.64209 54.6016 8.02628 54.0737 7.48108C53.5439 6.93829 52.8709 6.50021 52.05 6.16733C51.2296 5.83637 50.327 5.67017 49.3423 5.67017C47.2672 5.67017 45.6359 6.2975 44.4461 7.55217C43.2548 8.80493 42.6597 10.4741 42.6597 12.555C42.6597 13.1939 42.7346 13.8116 42.8835 14.4063C43.0329 15.0014 43.2832 15.5807 43.6353 16.1394C43.985 16.6995 44.4153 17.1889 44.924 17.6059C45.4327 18.0247 46.0774 18.3576 46.8579 18.6065C47.638 18.8548 48.5065 18.9792 49.4609 18.9792C49.9024 18.9792 50.3674 18.9393 50.8568 18.8606C51.3444 18.7823 51.8382 18.6559 52.3353 18.4878C52.8325 18.3197 53.2764 18.1131 53.6702 17.8739C54.0641 17.6347 54.3855 17.3383 54.6357 16.9862C54.8846 16.6365 55.007 16.2537 55.007 15.8444C55.007 15.4986 54.8673 15.183 54.5882 14.8982C54.3091 14.6147 53.9628 14.4735 53.5535 14.4735C53.2932 14.4735 53.0563 14.5326 52.844 14.6493C52.6317 14.768 52.4348 14.913 52.2532 15.0816C52.0712 15.2498 51.8704 15.4222 51.6504 15.5961C51.4289 15.7681 51.1301 15.9155 50.7574 16.0342C50.3827 16.1523 49.9504 16.2119 49.4629 16.2119C48.4527 16.2119 47.6572 15.9136 47.0741 15.3189C46.4905 14.7238 46.1979 13.9495 46.1979 12.995H54.1943C54.7928 12.995 55.2021 12.8898 55.4182 12.6813L55.4163 12.6794ZM46.196 10.9583C46.4006 10.0745 46.7739 9.38615 47.3128 8.88899C47.8522 8.39183 48.554 8.143 49.4129 8.143C50.1949 8.143 50.8626 8.41056 51.4174 8.94039C51.9736 9.47213 52.2988 10.1456 52.3925 10.9583H46.196Z" fill="white"/>
<path d="M61.2645 1.35939C60.9489 1.05485 60.519 0.9021 59.9738 0.9021C59.4286 0.9021 58.9982 1.05485 58.6788 1.35939C58.3594 1.66345 58.2009 2.09721 58.2009 2.66546V17.2023C58.2009 17.7705 58.3594 18.2086 58.6788 18.5165C58.9982 18.8244 59.4306 18.9772 59.9738 18.9772C60.5171 18.9772 60.9489 18.8244 61.2645 18.5165C61.5782 18.2086 61.7372 17.7705 61.7372 17.2023V2.66546C61.7372 2.09721 61.5782 1.66153 61.2645 1.35939Z" fill="white"/>
<path d="M76.9662 12.6794C77.1824 12.469 77.2914 12.0655 77.2914 11.467C77.2914 10.7326 77.1444 10.0212 76.8538 9.33235C76.5608 8.64209 76.1516 8.02628 75.6237 7.48108C75.0943 6.93829 74.4209 6.50021 73.6004 6.16733C72.78 5.83637 71.8774 5.67017 70.8922 5.67017C68.8171 5.67017 67.1859 6.2975 65.9965 7.55217C64.8048 8.80493 64.2101 10.4741 64.2101 12.555C64.2101 13.1939 64.2845 13.8116 64.4339 14.4063C64.5828 15.0014 64.8336 15.5807 65.1852 16.1394C65.5354 16.6995 65.9658 17.1889 66.4745 17.6059C66.9831 18.0247 67.6278 18.3576 68.4079 18.6065C69.1884 18.8548 70.0564 18.9792 71.0109 18.9792C71.4528 18.9792 71.9173 18.9393 72.4072 18.8606C72.8948 18.7823 73.3881 18.6559 73.8853 18.4878C74.3824 18.3197 74.8263 18.1131 75.2202 17.8739C75.6145 17.6347 75.9354 17.3383 76.1862 16.9862C76.435 16.6365 76.557 16.2537 76.557 15.8444C76.557 15.4986 76.4177 15.183 76.1386 14.8982C75.859 14.6128 75.5132 14.4735 75.1039 14.4735C74.8436 14.4735 74.6063 14.5326 74.394 14.6493C74.1817 14.768 73.9847 14.913 73.8031 15.0816C73.6216 15.2498 73.4208 15.4222 73.2008 15.5961C72.9789 15.7681 72.6806 15.9155 72.3078 16.0342C71.9327 16.1523 71.5003 16.2119 71.0128 16.2119C70.0031 16.2119 69.2076 15.9136 68.624 15.3189C68.0409 14.7238 67.7483 13.9495 67.7483 12.995H75.7442C76.3432 12.995 76.7525 12.8898 76.9682 12.6813L76.9662 12.6794ZM67.7464 10.9583C67.951 10.0745 68.3238 9.38615 68.8632 8.88899C69.4027 8.39183 70.1044 8.143 70.9633 8.143C71.7453 8.143 72.413 8.41056 72.9673 8.94039C73.5241 9.47213 73.8493 10.1456 73.9429 10.9583H67.7464Z" fill="white"/>
<path d="M91.7884 12.6794C92.0045 12.469 92.1136 12.0655 92.1136 11.467C92.1136 10.7326 91.9661 10.0212 91.6755 9.33235C91.383 8.64209 90.9737 8.02628 90.4458 7.48108C89.916 6.93829 89.243 6.50021 88.4226 6.16733C87.6021 5.83637 86.6991 5.67017 85.7144 5.67017C83.6393 5.67017 82.008 6.2975 80.8182 7.55217C79.6269 8.80493 79.0322 10.4741 79.0322 12.555C79.0322 13.1939 79.1067 13.8116 79.2556 14.4063C79.405 15.0014 79.6552 15.5807 80.0073 16.1394C80.3575 16.6995 80.7879 17.1889 81.2966 17.6059C81.8053 18.0247 82.4494 18.3576 83.23 18.6065C84.0101 18.8548 84.8786 18.9792 85.833 18.9792C86.2745 18.9792 86.7394 18.9393 87.2289 18.8606C87.7169 18.7823 88.2103 18.6559 88.7074 18.4878C89.2046 18.3197 89.6484 18.1131 90.0423 17.8739C90.4362 17.6347 90.7576 17.3383 91.0083 16.9862C91.2566 16.6365 91.3791 16.2537 91.3791 15.8444C91.3791 15.4986 91.2393 15.183 90.9603 14.8982C90.6812 14.6147 90.3348 14.4735 89.9256 14.4735C89.6657 14.4735 89.4284 14.5326 89.2161 14.6493C89.0038 14.768 88.8069 14.913 88.6253 15.0816C88.4432 15.2498 88.2424 15.4222 88.0229 15.5961C87.801 15.7681 87.5027 15.9155 87.1295 16.0342C86.7548 16.1523 86.3225 16.2119 85.8349 16.2119C84.8248 16.2119 84.0293 15.9136 83.4462 15.3189C82.8625 14.7238 82.57 13.9495 82.57 12.995H90.5664C91.1649 12.995 91.5741 12.8898 91.7903 12.6813L91.7884 12.6794ZM82.5681 10.9583C82.7727 10.0745 83.1459 9.38615 83.6854 8.88899C84.2243 8.39183 84.9266 8.143 85.785 8.143C86.5675 8.143 87.2347 8.41056 87.7895 8.94039C88.3457 9.47213 88.6709 10.1456 88.7646 10.9583H82.5681Z" fill="white"/>
</g></symbol><symbol id="play" viewBox="0 0 64 64"><g fill="none">
<g clip-path="url(#clip0_0_3591)">
<rect width="64" height="64" rx="20" fill="#7156FD" fill-opacity="0.2"/>
<path d="M45.3221 20.321C42.9638 19.2467 40.4349 18.4552 37.7908 18.0019C37.7427 17.9932 37.6946 18.015 37.6698 18.0587C37.3445 18.6331 36.9843 19.3823 36.732 19.9712C33.8881 19.5485 31.0588 19.5485 28.2732 19.9712C28.0209 19.3692 27.6476 18.6331 27.3209 18.0587C27.2961 18.0165 27.248 17.9946 27.1998 18.0019C24.5572 18.4538 22.0283 19.2453 19.6686 20.321C19.6482 20.3298 19.6307 20.3444 19.619 20.3633C14.8223 27.4782 13.5083 34.4182 14.1529 41.2721C14.1558 41.3056 14.1748 41.3377 14.201 41.3581C17.3658 43.6655 20.4314 45.0664 23.4401 45.9949C23.4882 46.0095 23.5392 45.992 23.5699 45.9526C24.2816 44.9877 24.916 43.9702 25.4599 42.9003C25.492 42.8376 25.4614 42.7633 25.3958 42.7385C24.3895 42.3595 23.4313 41.8974 22.5096 41.3727C22.4367 41.3304 22.4308 41.2269 22.4979 41.1773C22.6919 41.033 22.8859 40.8829 23.0711 40.7313C23.1046 40.7036 23.1513 40.6977 23.1907 40.7152C29.246 43.46 35.8015 43.46 41.7854 40.7152C41.8248 40.6963 41.8715 40.7021 41.9064 40.7298C42.0917 40.8814 42.2857 41.033 42.4811 41.1773C42.5482 41.2269 42.5438 41.3304 42.4709 41.3727C41.5492 41.9076 40.591 42.3595 39.5832 42.737C39.5176 42.7618 39.4884 42.8376 39.5205 42.9003C40.0761 43.9687 40.7106 44.9862 41.4091 45.9512C41.4383 45.992 41.4908 46.0095 41.5389 45.9949C44.5622 45.0664 47.6278 43.6655 50.7925 41.3581C50.8203 41.3377 50.8378 41.3071 50.8407 41.2735C51.6122 33.3496 49.5485 26.4666 45.3702 20.3648C45.3599 20.3444 45.3425 20.3298 45.3221 20.321ZM26.3642 37.0988C24.5411 37.0988 23.039 35.4371 23.039 33.3963C23.039 31.3556 24.512 29.6939 26.3642 29.6939C28.2309 29.6939 29.7185 31.3702 29.6894 33.3963C29.6894 35.4371 28.2163 37.0988 26.3642 37.0988ZM38.6586 37.0988C36.8356 37.0988 35.3334 35.4371 35.3334 33.3963C35.3334 31.3556 36.8064 29.6939 38.6586 29.6939C40.5254 29.6939 42.0129 31.3702 41.9838 33.3963C41.9838 35.4371 40.5254 37.0988 38.6586 37.0988Z" fill="#01FFC2"/>
</g>

</g></symbol><symbol id="telegram" viewBox="0 0 64 64"><g fill="none">
<g clip-path="url(#clip0_0_3594)">
<rect width="64" height="64" rx="20" fill="#7156FD" fill-opacity="0.2"/>
<path d="M17.141 32.0244L24.2117 34.3297L26.9126 42.9823C27.24 43.9292 27.0763 44.3049 28.0322 44.3049C28.7689 44.3049 29.0962 43.9548 29.5055 43.5365C29.7657 43.2701 31.3126 41.7016 33.0404 39.9504L40.3943 45.6189C41.7472 46.3976 42.7244 45.9938 43.0616 44.3075L47.8906 20.5763C48.3816 18.5092 47.1351 17.5717 45.8444 18.1856L17.4937 29.5876C15.5589 30.397 15.5712 31.5223 17.141 32.0244ZM41.2561 23.3094C42.0517 22.8065 42.7809 23.0772 42.1826 23.6313L28.5372 36.4745L28.006 42.3864L25.3207 33.7978L41.2561 23.3094Z" fill="#01FFC2"/>
</g>

</g></symbol><symbol id="triangle-gray" viewBox="0 0 10 6"><g fill="none">
<path d="M5 5.5L0 0.5H10L5 5.5Z" fill="#5E636E"/>
</g></symbol><symbol id="triangle" viewBox="0 0 8 6"><g fill="none">
<path d="M3.93005 0.5L0.430054 5.5H7.43005L3.93005 0.5Z" fill="#01FFC2"/>
</g></symbol><symbol id="tviter" viewBox="0 0 64 64"><g fill="none">
<g clip-path="url(#clip0_0_3597)">
<rect width="64" height="64" rx="20" fill="#7156FD" fill-opacity="0.2"/>
<path d="M47.7987 21.7535C45.7121 22.4896 45.4542 22.3961 46.4506 21.2745C47.2111 20.5254 47.7921 19.6148 48.1503 18.6106C48.1503 18.5288 47.7869 18.6106 47.3649 18.8793C46.6717 19.2214 45.9501 19.5029 45.2081 19.7206L43.8835 20.1412L42.7112 19.3233C42.061 18.8806 41.3607 18.5159 40.6247 18.2367C39.2072 17.892 37.7237 17.9243 36.3226 18.3302C34.8531 18.8333 33.5897 19.8028 32.7259 21.0901C31.862 22.3774 31.4455 23.9115 31.54 25.4573L31.6103 26.6257L30.4381 26.4855C25.9937 25.9366 21.8643 23.9116 18.7159 20.7371L17.0866 19.1247L16.6763 20.2931C16.2255 21.5351 16.1292 22.8775 16.3983 24.1708C16.6673 25.4642 17.2911 26.6577 18.2002 27.6188C19.1848 28.6586 18.9621 28.7871 17.2624 28.1913C16.6763 27.9927 16.1605 27.8408 16.0902 27.9226C16.1612 29.0718 16.46 30.1956 16.9693 31.229C17.7546 32.5937 18.9243 33.6986 20.3336 34.407L21.5058 34.9678H20.0757C18.7042 34.9678 18.6573 34.9678 18.798 35.517C19.2307 36.4808 19.8642 37.3419 20.6565 38.0429C21.4488 38.7439 22.3816 39.2689 23.3931 39.5829L24.917 40.097L23.5924 40.8915C21.5813 42.0339 19.3184 42.664 17.0045 42.7258C16.3301 42.6925 15.6546 42.7594 15 42.9245C16.4554 43.86 18.0332 44.5912 19.6889 45.0976C22.3604 45.9114 25.1694 46.1787 27.9472 45.8836C30.725 45.5884 33.4143 44.7369 35.8538 43.3801C39.489 41.0665 42.3467 37.7217 44.0593 33.7761C44.9907 31.4016 45.5558 28.9002 45.7356 26.3569C45.7356 25.1886 45.8059 25.06 47.1774 23.7047C47.8046 23.1195 48.381 22.4824 48.9005 21.8003C49.1115 21.3329 49.0881 21.3329 47.7987 21.7535Z" fill="#01FFC2"/>
</g>

</g></symbol></svg>