<svg width="64" height="64" viewBox="0 0 64 64" fill="none" xmlns="http://www.w3.org/2000/svg">
<g clip-path="url(#clip0_0_3628)">
<rect width="64" height="64" rx="20" fill="#7156FD" fill-opacity="0.2"/>
<path d="M38.9009 25.5205L21.8557 16.395C20.9699 15.9208 20.0095 15.8966 19.1782 16.1997L33.6999 30.7214L38.9009 25.5205Z" fill="#01FFC2"/>
<path d="M45.2581 28.9231L40.3482 26.2946L34.8112 31.8315L40.3482 37.3685L45.258 34.7399C47.5806 33.4965 47.5806 30.1665 45.2581 28.9231Z" fill="#01FFC2"/>
<path d="M17.8491 17.0908C17.3283 17.6632 17 18.4274 17 19.3029V44.3601C17 45.2357 17.3283 45.9999 17.849 46.5723L32.5898 31.8315L17.8491 17.0908Z" fill="#01FFC2"/>
<path d="M19.1782 47.4647C20.0094 47.7677 20.9699 47.7436 21.8557 47.2693L38.9009 38.1438L33.7 32.9429L19.1782 47.4647Z" fill="#01FFC2"/>
</g>
<defs>
<clipPath id="clip0_0_3628">
<rect width="64" height="64" fill="white"/>
</clipPath>
</defs>
</svg>
