<svg width="92" height="31" viewBox="0 0 92 31" fill="none" xmlns="http://www.w3.org/2000/svg"><path d="M12.3797 30V23.84H15.0373C15.7237 23.84 16.2546 23.9779 16.6301 24.2536C17.0114 24.5293 17.2021 24.9195 17.2021 25.424C17.2021 25.7584 17.1229 26.04 16.9645 26.2688C16.8119 26.4976 16.6007 26.6707 16.3309 26.788C16.0669 26.9053 15.7765 26.964 15.4597 26.964L15.6093 26.7528C16.0023 26.7528 16.3397 26.8144 16.6213 26.9376C16.9087 27.0549 17.1317 27.2339 17.2901 27.4744C17.4485 27.7091 17.5277 28.0024 17.5277 28.3544C17.5277 28.8765 17.3341 29.2813 16.9469 29.5688C16.5655 29.8563 15.9877 30 15.2133 30H12.3797ZM13.0309 29.4632H15.2045C15.7442 29.4632 16.1578 29.3723 16.4453 29.1904C16.7327 29.0027 16.8765 28.7064 16.8765 28.3016C16.8765 27.9027 16.7327 27.6123 16.4453 27.4304C16.1578 27.2427 15.7442 27.1488 15.2045 27.1488H12.9605V26.612H14.9933C15.4861 26.612 15.8674 26.5181 16.1373 26.3304C16.413 26.1427 16.5509 25.864 16.5509 25.4944C16.5509 25.1189 16.413 24.8403 16.1373 24.6584C15.8674 24.4707 15.4861 24.3768 14.9933 24.3768H13.0309V29.4632ZM22.7307 30V27.712L22.8803 28.1168L20.2667 23.84H20.9619L23.2587 27.5976H22.8891L25.1859 23.84H25.8371L23.2235 28.1168L23.3731 27.712V30H22.7307ZM33.9022 30V23.84H34.439L38.6894 29.1904H38.4078V23.84H39.0502V30H38.5134L34.2718 24.6496H34.5534V30H33.9022ZM45.9184 30.0528C45.1323 30.0528 44.5133 29.8269 44.0616 29.3752C43.6099 28.9235 43.384 28.2547 43.384 27.3688V23.84H44.0352V27.3424C44.0352 28.0699 44.1995 28.6067 44.528 28.9528C44.8565 29.2989 45.32 29.472 45.9184 29.472C46.5227 29.472 46.9891 29.2989 47.3176 28.9528C47.6461 28.6067 47.8104 28.0699 47.8104 27.3424V23.84H48.444V27.3688C48.444 28.2547 48.2181 28.9235 47.7664 29.3752C47.3205 29.8269 46.7045 30.0528 45.9184 30.0528ZM53.8588 30V24.4032H51.694V23.84H56.6748V24.4032H54.51V30H53.8588ZM61.695 30.0528C61.2374 30.0528 60.7974 29.9795 60.375 29.8328C59.9585 29.6803 59.6358 29.4867 59.407 29.252L59.6622 28.7504C59.8793 28.9616 60.1697 29.1405 60.5334 29.2872C60.903 29.428 61.2902 29.4984 61.695 29.4984C62.0822 29.4984 62.3961 29.4515 62.6366 29.3576C62.883 29.2579 63.0619 29.1259 63.1734 28.9616C63.2907 28.7973 63.3494 28.6155 63.3494 28.416C63.3494 28.1755 63.279 27.9819 63.1382 27.8352C63.0033 27.6885 62.8243 27.5741 62.6014 27.492C62.3785 27.404 62.1321 27.3277 61.8622 27.2632C61.5923 27.1987 61.3225 27.1312 61.0526 27.0608C60.7827 26.9845 60.5334 26.8848 60.3046 26.7616C60.0817 26.6384 59.8998 26.4771 59.759 26.2776C59.6241 26.0723 59.5566 25.8053 59.5566 25.4768C59.5566 25.1717 59.6358 24.8931 59.7942 24.6408C59.9585 24.3827 60.2078 24.1773 60.5422 24.0248C60.8766 23.8664 61.3049 23.7872 61.827 23.7872C62.1731 23.7872 62.5163 23.8371 62.8566 23.9368C63.1969 24.0307 63.4902 24.1627 63.7366 24.3328L63.5166 24.852C63.2526 24.676 62.971 24.5469 62.6718 24.4648C62.3785 24.3827 62.0939 24.3416 61.8182 24.3416C61.4486 24.3416 61.1435 24.3915 60.903 24.4912C60.6625 24.5909 60.4835 24.7259 60.3662 24.896C60.2547 25.0603 60.199 25.248 60.199 25.4592C60.199 25.6997 60.2665 25.8933 60.4014 26.04C60.5422 26.1867 60.7241 26.3011 60.947 26.3832C61.1758 26.4653 61.4251 26.5387 61.695 26.6032C61.9649 26.6677 62.2318 26.7381 62.4958 26.8144C62.7657 26.8907 63.0121 26.9904 63.235 27.1136C63.4638 27.2309 63.6457 27.3893 63.7806 27.5888C63.9214 27.7883 63.9918 28.0493 63.9918 28.372C63.9918 28.6712 63.9097 28.9499 63.7454 29.208C63.5811 29.4603 63.3289 29.6656 62.9886 29.824C62.6542 29.9765 62.223 30.0528 61.695 30.0528ZM69.5379 30.044C69.092 30.044 68.6901 29.9443 68.3323 29.7448C67.9803 29.5395 67.7016 29.2608 67.4963 28.9088C67.2909 28.5509 67.1883 28.1432 67.1883 27.6856C67.1883 27.2221 67.2909 26.8144 67.4963 26.4624C67.7016 26.1104 67.9803 25.8347 68.3323 25.6352C68.6843 25.4357 69.0861 25.336 69.5379 25.336C69.9955 25.336 70.4003 25.4357 70.7523 25.6352C71.1101 25.8347 71.3888 26.1104 71.5883 26.4624C71.7936 26.8144 71.8963 27.2221 71.8963 27.6856C71.8963 28.1432 71.7936 28.5509 71.5883 28.9088C71.3888 29.2608 71.1101 29.5395 70.7523 29.7448C70.3944 29.9443 69.9896 30.044 69.5379 30.044ZM69.5379 29.4896C69.8723 29.4896 70.1685 29.4163 70.4267 29.2696C70.6848 29.1171 70.8872 28.9059 71.0339 28.636C71.1864 28.3603 71.2627 28.0435 71.2627 27.6856C71.2627 27.3219 71.1864 27.0051 71.0339 26.7352C70.8872 26.4653 70.6848 26.2571 70.4267 26.1104C70.1685 25.9579 69.8752 25.8816 69.5467 25.8816C69.2181 25.8816 68.9248 25.9579 68.6667 26.1104C68.4085 26.2571 68.2032 26.4653 68.0507 26.7352C67.8981 27.0051 67.8219 27.3219 67.8219 27.6856C67.8219 28.0435 67.8981 28.3603 68.0507 28.636C68.2032 28.9059 68.4085 29.1171 68.6667 29.2696C68.9248 29.4163 69.2152 29.4896 69.5379 29.4896ZM77.9063 25.336C78.2817 25.336 78.6103 25.4093 78.8919 25.556C79.1793 25.6968 79.4023 25.9139 79.5607 26.2072C79.7249 26.5005 79.8071 26.8701 79.8071 27.316V30H79.1823V27.3776C79.1823 26.8907 79.0591 26.524 78.8127 26.2776C78.5721 26.0253 78.2319 25.8992 77.7919 25.8992C77.4633 25.8992 77.1759 25.9667 76.9295 26.1016C76.6889 26.2307 76.5012 26.4213 76.3663 26.6736C76.2372 26.92 76.1727 27.2192 76.1727 27.5712V30H75.5479V25.38H76.1463V26.6472L76.0495 26.4096C76.1961 26.0752 76.4308 25.8141 76.7535 25.6264C77.0761 25.4328 77.4604 25.336 77.9063 25.336Z" fill="white"/><path d="M10.2121 13.9377C9.9594 13.9377 9.73604 13.9795 9.54438 14.0621C9.34936 14.1462 9.19036 14.2533 9.06643 14.3873C8.9401 14.5209 8.82145 14.6703 8.71049 14.8307C8.59953 14.9935 8.47896 15.154 8.34879 15.3168C8.21861 15.4792 8.07547 15.6266 7.91647 15.7602C7.75796 15.8942 7.54949 16.0013 7.28914 16.0854C7.02879 16.1675 6.73433 16.2098 6.40385 16.2098C5.4494 16.2098 4.71495 15.8846 4.19665 15.2342C3.68027 14.5843 3.42233 13.6985 3.42233 12.5779C3.42233 11.8127 3.51023 11.1512 3.68796 10.5907C3.86569 10.0306 4.10682 9.60209 4.41088 9.30188C4.71495 9.00358 5.03438 8.78358 5.36918 8.64572C5.70399 8.50786 6.0556 8.43917 6.42883 8.43917C6.89381 8.43917 7.28578 8.50978 7.60521 8.6534C7.92656 8.79511 8.16578 8.96899 8.32813 9.17362C8.49049 9.37825 8.63988 9.58288 8.77774 9.78751C8.9156 9.99214 9.08757 10.166 9.29219 10.3077C9.49682 10.4494 9.74949 10.522 10.0497 10.522C10.5219 10.522 10.9143 10.3899 11.2261 10.1262C11.5378 9.86196 11.693 9.48537 11.693 8.99589C11.693 8.14471 11.192 7.37759 10.1914 6.69502C9.1894 6.01436 7.97075 5.67188 6.53643 5.67188C4.41569 5.67188 2.77626 6.30113 1.62102 7.55965C0.465776 8.81768 -0.113525 10.4874 -0.113525 12.5779C-0.113525 13.5169 0.0185707 14.372 0.282282 15.1444C0.545994 15.9172 0.936518 16.5921 1.45289 17.1681C1.96927 17.7435 2.64224 18.1893 3.47036 18.5049C4.29848 18.8205 5.24525 18.9771 6.30874 18.9771C7.17722 18.9771 7.96499 18.8584 8.67447 18.6216C9.38394 18.3862 9.95027 18.0822 10.373 17.7109C10.7957 17.34 11.1209 16.9442 11.3481 16.5215C11.5758 16.0988 11.6906 15.6876 11.6906 15.2861C11.6906 14.9224 11.5527 14.6069 11.2775 14.3393C11.0003 14.0717 10.6463 13.9377 10.214 13.9377H10.2121Z" fill="white"/><path d="M25.1754 8.08909C24.9156 7.46223 24.5635 6.97804 24.1216 6.63939C23.6796 6.30123 23.2094 6.05433 22.7084 5.90158C22.2074 5.74834 21.6737 5.67005 21.104 5.67005C19.417 5.67005 18.0994 6.29354 17.1546 7.5386H17.107V2.66546C17.107 2.09721 16.9485 1.66153 16.6291 1.35939C16.3096 1.05485 15.8773 0.9021 15.334 0.9021C14.7908 0.9021 14.3585 1.05485 14.0448 1.35939C13.7292 1.66345 13.5707 2.09721 13.5707 2.66546V17.2023C13.5707 18.3863 14.1577 18.9772 15.334 18.9772C16.5104 18.9772 17.1089 18.3863 17.1089 17.2023V11.3713C17.1089 10.5355 17.388 9.86205 17.9486 9.34952C18.5091 8.83699 19.123 8.58096 19.7922 8.58096C20.5266 8.58096 21.0833 8.80096 21.4599 9.2424C21.8385 9.68433 22.0282 10.279 22.0282 11.0288V17.2023C22.0282 18.3863 22.6152 18.9772 23.7896 18.9772C24.9641 18.9772 25.5645 18.3863 25.5645 17.2023V10.3174C25.5645 9.45856 25.4343 8.7145 25.1745 8.08717L25.1764 8.08909H25.1754Z" fill="white"/><path d="M40.5942 12.6794C40.8103 12.469 40.9194 12.0655 40.9194 11.467C40.9194 10.7326 40.7724 10.0212 40.4813 9.33235C40.1888 8.64209 39.7795 8.02628 39.2516 7.48108C38.7218 6.93829 38.0488 6.50021 37.2284 6.16733C36.4079 5.83637 35.5053 5.67017 34.5202 5.67017C32.445 5.67017 30.8138 6.2975 29.624 7.55217C28.4327 8.80493 27.838 10.4741 27.838 12.555C27.838 13.1939 27.9125 13.8116 28.0619 14.4063C28.2112 15.0014 28.4615 15.5807 28.8136 16.1394C29.1638 16.6995 29.5942 17.1889 30.1029 17.6059C30.6115 18.0247 31.2562 18.3576 32.0363 18.6065C32.8168 18.8548 33.6848 18.9792 34.6393 18.9792C35.0812 18.9792 35.5457 18.9393 36.0352 18.8606C36.5232 18.7823 37.0165 18.6559 37.5137 18.4878C38.0108 18.3197 38.4547 18.1131 38.8486 17.8739C39.2425 17.6328 39.5638 17.3383 39.8146 16.9862C40.0629 16.6365 40.1854 16.2537 40.1854 15.8444C40.1854 15.4986 40.0461 15.183 39.7665 14.8982C39.4874 14.6147 39.1411 14.4735 38.7319 14.4735C38.472 14.4735 38.2347 14.5326 38.0224 14.6493C37.8101 14.768 37.6131 14.913 37.4315 15.0816C37.25 15.2498 37.0492 15.4222 36.8292 15.5961C36.6073 15.7681 36.309 15.9155 35.9357 16.0342C35.5611 16.1523 35.1288 16.2119 34.6412 16.2119C33.6315 16.2119 32.8356 15.9136 32.2524 15.3189C31.6693 14.7238 31.3763 13.9495 31.3763 12.995H39.3726C39.9712 12.995 40.3804 12.8898 40.5966 12.6813L40.5946 12.6794H40.5942ZM31.3739 10.9583C31.5785 10.0745 31.9517 9.38615 32.4912 8.88899C33.0301 8.39183 33.7324 8.143 34.5908 8.143C35.3733 8.143 36.0405 8.41056 36.5953 8.94039C37.152 9.47213 37.4767 10.1456 37.5709 10.9583H31.3739Z" fill="white"/><path d="M55.4163 12.6794C55.6325 12.469 55.7415 12.0655 55.7415 11.467C55.7415 10.7326 55.594 10.0212 55.3034 9.33235C55.0109 8.64209 54.6016 8.02628 54.0737 7.48108C53.5439 6.93829 52.8709 6.50021 52.05 6.16733C51.2296 5.83637 50.327 5.67017 49.3423 5.67017C47.2672 5.67017 45.6359 6.2975 44.4461 7.55217C43.2548 8.80493 42.6597 10.4741 42.6597 12.555C42.6597 13.1939 42.7346 13.8116 42.8835 14.4063C43.0329 15.0014 43.2832 15.5807 43.6353 16.1394C43.985 16.6995 44.4153 17.1889 44.924 17.6059C45.4327 18.0247 46.0774 18.3576 46.8579 18.6065C47.638 18.8548 48.5065 18.9792 49.4609 18.9792C49.9024 18.9792 50.3674 18.9393 50.8568 18.8606C51.3444 18.7823 51.8382 18.6559 52.3353 18.4878C52.8325 18.3197 53.2764 18.1131 53.6702 17.8739C54.0641 17.6347 54.3855 17.3383 54.6357 16.9862C54.8846 16.6365 55.007 16.2537 55.007 15.8444C55.007 15.4986 54.8673 15.183 54.5882 14.8982C54.3091 14.6147 53.9628 14.4735 53.5535 14.4735C53.2932 14.4735 53.0563 14.5326 52.844 14.6493C52.6317 14.768 52.4348 14.913 52.2532 15.0816C52.0712 15.2498 51.8704 15.4222 51.6504 15.5961C51.4289 15.7681 51.1301 15.9155 50.7574 16.0342C50.3827 16.1523 49.9504 16.2119 49.4629 16.2119C48.4527 16.2119 47.6572 15.9136 47.0741 15.3189C46.4905 14.7238 46.1979 13.9495 46.1979 12.995H54.1943C54.7928 12.995 55.2021 12.8898 55.4182 12.6813L55.4163 12.6794ZM46.196 10.9583C46.4006 10.0745 46.7739 9.38615 47.3128 8.88899C47.8522 8.39183 48.554 8.143 49.4129 8.143C50.1949 8.143 50.8626 8.41056 51.4174 8.94039C51.9736 9.47213 52.2988 10.1456 52.3925 10.9583H46.196Z" fill="white"/><path d="M61.2645 1.35939C60.9489 1.05485 60.519 0.9021 59.9738 0.9021C59.4286 0.9021 58.9982 1.05485 58.6788 1.35939C58.3594 1.66345 58.2009 2.09721 58.2009 2.66546V17.2023C58.2009 17.7705 58.3594 18.2086 58.6788 18.5165C58.9982 18.8244 59.4306 18.9772 59.9738 18.9772C60.5171 18.9772 60.9489 18.8244 61.2645 18.5165C61.5782 18.2086 61.7372 17.7705 61.7372 17.2023V2.66546C61.7372 2.09721 61.5782 1.66153 61.2645 1.35939Z" fill="white"/><path d="M76.9662 12.6794C77.1824 12.469 77.2914 12.0655 77.2914 11.467C77.2914 10.7326 77.1444 10.0212 76.8538 9.33235C76.5608 8.64209 76.1516 8.02628 75.6237 7.48108C75.0943 6.93829 74.4209 6.50021 73.6004 6.16733C72.78 5.83637 71.8774 5.67017 70.8922 5.67017C68.8171 5.67017 67.1859 6.2975 65.9965 7.55217C64.8048 8.80493 64.2101 10.4741 64.2101 12.555C64.2101 13.1939 64.2845 13.8116 64.4339 14.4063C64.5828 15.0014 64.8336 15.5807 65.1852 16.1394C65.5354 16.6995 65.9658 17.1889 66.4745 17.6059C66.9831 18.0247 67.6278 18.3576 68.4079 18.6065C69.1884 18.8548 70.0564 18.9792 71.0109 18.9792C71.4528 18.9792 71.9173 18.9393 72.4072 18.8606C72.8948 18.7823 73.3881 18.6559 73.8853 18.4878C74.3824 18.3197 74.8263 18.1131 75.2202 17.8739C75.6145 17.6347 75.9354 17.3383 76.1862 16.9862C76.435 16.6365 76.557 16.2537 76.557 15.8444C76.557 15.4986 76.4177 15.183 76.1386 14.8982C75.859 14.6128 75.5132 14.4735 75.1039 14.4735C74.8436 14.4735 74.6063 14.5326 74.394 14.6493C74.1817 14.768 73.9847 14.913 73.8031 15.0816C73.6216 15.2498 73.4208 15.4222 73.2008 15.5961C72.9789 15.7681 72.6806 15.9155 72.3078 16.0342C71.9327 16.1523 71.5003 16.2119 71.0128 16.2119C70.0031 16.2119 69.2076 15.9136 68.624 15.3189C68.0409 14.7238 67.7483 13.9495 67.7483 12.995H75.7442C76.3432 12.995 76.7525 12.8898 76.9682 12.6813L76.9662 12.6794ZM67.7464 10.9583C67.951 10.0745 68.3238 9.38615 68.8632 8.88899C69.4027 8.39183 70.1044 8.143 70.9633 8.143C71.7453 8.143 72.413 8.41056 72.9673 8.94039C73.5241 9.47213 73.8493 10.1456 73.9429 10.9583H67.7464Z" fill="white"/><path d="M91.7884 12.6794C92.0045 12.469 92.1136 12.0655 92.1136 11.467C92.1136 10.7326 91.9661 10.0212 91.6755 9.33235C91.383 8.64209 90.9737 8.02628 90.4458 7.48108C89.916 6.93829 89.243 6.50021 88.4226 6.16733C87.6021 5.83637 86.6991 5.67017 85.7144 5.67017C83.6393 5.67017 82.008 6.2975 80.8182 7.55217C79.6269 8.80493 79.0322 10.4741 79.0322 12.555C79.0322 13.1939 79.1067 13.8116 79.2556 14.4063C79.405 15.0014 79.6552 15.5807 80.0073 16.1394C80.3575 16.6995 80.7879 17.1889 81.2966 17.6059C81.8053 18.0247 82.4494 18.3576 83.23 18.6065C84.0101 18.8548 84.8786 18.9792 85.833 18.9792C86.2745 18.9792 86.7394 18.9393 87.2289 18.8606C87.7169 18.7823 88.2103 18.6559 88.7074 18.4878C89.2046 18.3197 89.6484 18.1131 90.0423 17.8739C90.4362 17.6347 90.7576 17.3383 91.0083 16.9862C91.2566 16.6365 91.3791 16.2537 91.3791 15.8444C91.3791 15.4986 91.2393 15.183 90.9603 14.8982C90.6812 14.6147 90.3348 14.4735 89.9256 14.4735C89.6657 14.4735 89.4284 14.5326 89.2161 14.6493C89.0038 14.768 88.8069 14.913 88.6253 15.0816C88.4432 15.2498 88.2424 15.4222 88.0229 15.5961C87.801 15.7681 87.5027 15.9155 87.1295 16.0342C86.7548 16.1523 86.3225 16.2119 85.8349 16.2119C84.8248 16.2119 84.0293 15.9136 83.4462 15.3189C82.8625 14.7238 82.57 13.9495 82.57 12.995H90.5664C91.1649 12.995 91.5741 12.8898 91.7903 12.6813L91.7884 12.6794ZM82.5681 10.9583C82.7727 10.0745 83.1459 9.38615 83.6854 8.88899C84.2243 8.39183 84.9266 8.143 85.785 8.143C86.5675 8.143 87.2347 8.41056 87.7895 8.94039C88.3457 9.47213 88.6709 10.1456 88.7646 10.9583H82.5681Z" fill="white"/></svg>